HIERARCHY
ROOT Hips
{
	OFFSET 0.000000 0.000000 0.000000
	CHANNELS 6 Xposition Yposition Zposition Xrotation Yrotation Zrotation
	JOINT LeftUpLeg_virtual
	{
		OFFSET 0.000000 0.000000 0.000000
		CHANNELS 3 Xrotation Yrotation Zrotation
		JOINT LeftUpLeg
		{
			OFFSET 11.394100 -6.187798 -0.413800
			CHANNELS 3 Xrotation Yrotation Zrotation
			JOINT LeftLeg
			{
				OFFSET 0.430247 -32.302673 3.732800
				CHANNELS 3 Xrotation Yrotation Zrotation
				JOINT LeftFoot
				{
					OFFSET -0.430247 -48.264931 -6.423300
					CHANNELS 3 Xrotation Yrotation Zrotation
					JOINT LeftToeBase
					{
						OFFSET 4.230900 -16.068199 23.438400
						CHANNELS 3 Xrotation Yrotation Zrotation
						JOINT LeftToe_End
						{
							OFFSET 4.510700 0.695400 19.974600
							CHANNELS 3 Xrotation Yrotation Zrotation
							End Site
							{
								OFFSET 0 0 0
							}
						}
					}
				}
			}
		}
	}
	JOINT RightUpLeg_virtual
	{
		OFFSET 0.000000 0.000000 0.000000
		CHANNELS 3 Xrotation Yrotation Zrotation
		JOINT RightUpLeg
		{
			OFFSET -11.333700 -6.187798 -0.413800
			CHANNELS 3 Xrotation Yrotation Zrotation
			JOINT RightLeg
			{
				OFFSET -0.430392 -32.302628 3.733000
				CHANNELS 3 Xrotation Yrotation Zrotation
				JOINT RightFoot
				{
					OFFSET 0.430392 -48.264973 -6.423500
					CHANNELS 3 Xrotation Yrotation Zrotation
					JOINT RightToeBase
					{
						OFFSET -4.230900 -16.068199 23.438400
						CHANNELS 3 Xrotation Yrotation Zrotation
						JOINT RightToe_End
						{
							OFFSET -4.510700 0.695400 19.974600
							CHANNELS 3 Xrotation Yrotation Zrotation
							End Site
							{
								OFFSET 0 0 0
							}
						}
					}
				}
			}
		}
	}
	JOINT Spine_virtual
	{
		OFFSET 0.000000 0.000000 0.000000
		CHANNELS 3 Xrotation Yrotation Zrotation
		JOINT Spine
		{
			OFFSET -0.002400 12.777504 0.315300
			CHANNELS 3 Xrotation Yrotation Zrotation
			JOINT Spine1
			{
				OFFSET -0.002067 5.816869 0.032633
				CHANNELS 3 Xrotation Yrotation Zrotation
				JOINT Spine1_split
				{
					OFFSET -0.002067 5.816869 0.032633
					CHANNELS 3 Xrotation Yrotation Zrotation
					JOINT Spine2
					{
						OFFSET -0.002067 5.816869 0.032633
						CHANNELS 3 Xrotation Yrotation Zrotation
						JOINT Neck_virtual
						{
							OFFSET 0.000000 0.000000 0.000000
							CHANNELS 3 Xrotation Yrotation Zrotation
							JOINT Neck
							{
								OFFSET -0.003700 21.199493 -0.826900
								CHANNELS 3 Xrotation Yrotation Zrotation
								JOINT Head
								{
									OFFSET 0.000000 20.442200 4.834800
									CHANNELS 3 Xrotation Yrotation Zrotation
									JOINT HeadTop_End
									{
										OFFSET 0.000000 34.668396 4.968400
										CHANNELS 3 Xrotation Yrotation Zrotation
										End Site
										{
											OFFSET 0 0 0
										}
									}
								}
							}
						}
						JOINT LeftShoulder_virtual
						{
							OFFSET 0.000000 0.000000 0.000000
							CHANNELS 3 Xrotation Yrotation Zrotation
							JOINT LeftShoulder
							{
								OFFSET 3.288150 8.794197 -1.372250
								CHANNELS 3 Xrotation Yrotation Zrotation
								JOINT LeftShoulder_split
								{
									OFFSET 3.288150 8.794197 -1.372250
									CHANNELS 3 Xrotation Yrotation Zrotation
									JOINT LeftArm
									{
										OFFSET 11.953299 -2.279007 -0.146200
										CHANNELS 3 Xrotation Yrotation Zrotation
										JOINT LeftForeArm
										{
											OFFSET 18.448900 0.000000 0.000000
											CHANNELS 3 Xrotation Yrotation Zrotation
											JOINT LeftHand
											{
												OFFSET 29.527798 0.000000 0.000000
												CHANNELS 3 Xrotation Yrotation Zrotation
												End Site
												{
													OFFSET 0 0 0
												}
											}
										}
									}
								}
							}
						}
						JOINT RightShoulder_virtual
						{
							OFFSET 0.000000 0.000000 0.000000
							CHANNELS 3 Xrotation Yrotation Zrotation
							JOINT RightShoulder
							{
								OFFSET -3.249400 8.794197 -1.372250
								CHANNELS 3 Xrotation Yrotation Zrotation
								JOINT RightShoulder_split
								{
									OFFSET -3.249400 8.794197 -1.372250
									CHANNELS 3 Xrotation Yrotation Zrotation
									JOINT RightArm
									{
										OFFSET -11.953299 -2.279007 -0.146200
										CHANNELS 3 Xrotation Yrotation Zrotation
										JOINT RightForeArm
										{
											OFFSET -18.448900 0.000000 0.000000
											CHANNELS 3 Xrotation Yrotation Zrotation
											JOINT RightHand
											{
												OFFSET -29.527802 0.000000 0.000000
												CHANNELS 3 Xrotation Yrotation Zrotation
												End Site
												{
													OFFSET 0 0 0
												}
											}
										}
									}
								}
							}
						}
					}
				}
			}
		}
	}
}
MOTION
Frames: 4
Frame Time: 0.03333333
-5.750143 82.678238 -2.516438 0.000000 0.000000 0.000000 -2.368506 -14.486334 4.066985 -60.924645 13.457406 35.494495 54.314132 -20.385784 -0.356042 11.128038 -10.670322 -19.035432 1.208739 -7.203249 4.281280 0.000000 0.000000 0.000000 -3.753919 -9.992205 4.782164 -22.819667 4.296660 -16.951512 52.095851 2.400527 -2.912043 -28.536134 -15.698293 36.730135 5.690011 2.798807 -24.793264 0.000000 0.000000 0.000000 -3.532367 -1.369167 4.365447 5.223543 7.552471 -0.034008 7.575433 6.653359 -2.048183 0.260488 -1.505701 0.220828 0.000000 0.000000 0.000000 10.388961 5.900957 1.108904 -5.300423 18.041627 11.835920 7.840210 39.086437 -23.922027 0.000000 0.000000 0.000000 1.736704 3.762816 -1.436732 0.516540 -14.250185 3.859619 -1.193142 1.810759 -4.033114 -24.318100 22.978401 -53.301690 1.067788 -53.890261 8.063666 0.000000 0.000000 0.000000 1.698784 2.332249 1.482188 -1.659710 -7.284009 -1.675212 -15.185423 15.005171 -3.297681 9.359101 -13.097896 45.656997 -34.015872 32.837671 19.535296 0.000000 0.000000 0.000000 
-6.173522 82.664589 -2.499802 0.000000 0.000000 0.000000 -2.531781 -16.189782 4.470516 -59.359439 12.284785 35.216992 56.575608 -19.887158 0.221690 7.657831 -9.085460 -20.469449 3.382716 -7.169357 4.240884 0.000000 0.000000 0.000000 -3.342853 -12.290527 4.748639 -23.058910 4.346106 -17.001160 52.331752 2.357483 -2.998990 -29.509344 -16.243079 36.101375 11.073139 1.901232 -25.148987 0.000000 0.000000 0.000000 -2.620541 -3.260486 4.578214 5.356397 7.191545 -0.240246 7.522094 6.813176 -2.128589 0.158306 -1.415324 0.205030 0.000000 0.000000 0.000000 9.751793 5.867087 1.044768 -5.535486 18.157177 12.558824 7.957653 39.525424 -23.441679 0.000000 0.000000 0.000000 1.878034 3.845034 -1.649125 0.406564 -13.459748 3.885258 -1.538090 1.141647 -3.189976 -23.152371 23.263165 -53.256747 0.704486 -55.353772 7.741811 0.000000 0.000000 0.000000 1.952074 2.603841 1.344122 -1.532018 -5.419426 -1.106839 -15.944949 15.081450 -3.997002 8.838738 -13.212269 47.177944 -34.413341 33.538657 19.925607 0.000000 0.000000 0.000000 
-6.467397 82.503052 -2.450989 0.000000 0.000000 0.000000 -2.125581 -20.023523 4.947152 -56.215763 11.030090 34.678049 58.758021 -17.775359 0.140667 2.922235 -4.911142 -19.046428 7.583701 -6.931138 3.767949 0.000000 0.000000 0.000000 -2.531238 -16.017041 4.733914 -24.647535 5.565984 -17.169933 53.153085 2.523821 -3.278287 -29.161503 -17.050008 36.231988 14.854825 1.155861 -26.580858 0.000000 0.000000 0.000000 -1.720058 -6.378122 4.643406 5.576840 6.980992 -0.650937 7.684890 6.864964 -2.287543 0.044173 -1.339570 0.110907 0.000000 0.000000 0.000000 9.522236 5.839718 0.673138 -6.085033 17.964589 13.130971 6.930556 40.198672 -21.291723 0.000000 0.000000 0.000000 2.280971 3.812691 -1.976829 0.113523 -12.208886 4.584426 -1.597546 -1.089504 -3.253273 -20.586943 23.972289 -52.278480 -0.025442 -58.485462 6.411127 0.000000 0.000000 0.000000 2.307499 2.740156 1.061586 -1.421543 -3.051986 -0.011754 -16.795119 14.017301 -4.708921 8.028187 -11.992043 48.412575 -33.759197 34.113848 19.442214 0.000000 0.000000 0.000000 
-6.695376 82.044487 -2.473179 0.000000 0.000000 0.000000 -1.439103 -25.458673 5.238282 -52.854767 9.060034 33.439510 61.792523 -15.705431 0.123584 -0.486583 -0.713281 -15.593283 9.958876 -6.782917 3.056195 0.000000 0.000000 0.000000 -1.867624 -20.190705 4.786174 -27.381083 7.894929 -17.267623 55.036595 2.536249 -3.490517 -26.959899 -18.040696 36.872749 15.259834 0.859073 -28.463859 0.000000 0.000000 0.000000 -1.005845 -10.795688 4.504465 5.835571 6.953894 -1.267433 8.117174 6.804595 -2.411608 -0.044800 -1.250040 0.030098 0.000000 0.000000 0.000000 9.729358 5.841842 0.158325 -7.020150 17.441749 13.403453 5.014158 41.067226 -18.013403 0.000000 0.000000 0.000000 2.955647 3.691485 -2.249504 -0.409796 -10.739861 5.728635 -0.954307 -3.627723 -4.166461 -16.972928 25.040556 -50.506817 -1.100661 -62.767587 4.155296 0.000000 0.000000 0.000000 2.843809 2.806355 0.789996 -1.279226 -0.219914 1.474333 -17.714864 11.919673 -4.778769 6.474119 -9.551190 48.909164 -31.896526 33.948171 17.884167 0.000000 0.000000 0.000000 
